<svg xmlns="http://www.w3.org/2000/svg" width="1920" height="1080" viewBox="0 0 1920 1080">
  <defs>
    <linearGradient id="sky" x1="0" x2="0" y1="0" y2="1">
      <stop offset="0%" stop-color="#b9d6ff"/>
      <stop offset="100%" stop-color="#9dbcf7"/>
    </linearGradient>
    <linearGradient id="water" x1="0" x2="0" y1="0" y2="1">
      <stop offset="0%" stop-color="#7fb1ff"/>
      <stop offset="100%" stop-color="#5a8de0"/>
    </linearGradient>
  </defs>
  <rect width="1920" height="1080" fill="url(#sky)"/>
  <!-- blocky clouds -->
  <g fill="#ffffff" opacity="0.9">
    <rect x="200" y="140" width="240" height="48"/>
    <rect x="260" y="120" width="160" height="48"/>
    <rect x="520" y="180" width="280" height="56"/>
    <rect x="900" y="120" width="300" height="56"/>
    <rect x="1100" y="170" width="220" height="50"/>
    <rect x="1460" y="130" width="260" height="48"/>
  </g>
  <!-- distant blocky mountains -->
  <g fill="#7aa06e">
    <rect x="0" y="620" width="320" height="80"/>
    <rect x="320" y="600" width="200" height="100"/>
    <rect x="520" y="560" width="240" height="140"/>
    <rect x="760" y="600" width="160" height="100"/>
    <rect x="920" y="580" width="240" height="120"/>
    <rect x="1160" y="560" width="260" height="140"/>
    <rect x="1420" y="590" width="240" height="110"/>
    <rect x="1660" y="620" width="260" height="80"/>
  </g>
  <!-- water/grass horizon -->
  <rect x="0" y="700" width="1920" height="140" fill="url(#water)"/>
  <rect x="0" y="840" width="1920" height="240" fill="#5e8b3d"/>
  <!-- dirt blocks -->
  <rect x="0" y="960" width="1920" height="140" fill="#7a5b39"/>
  <g fill="#8b6a44" opacity="0.5">
    <rect x="60" y="980" width="80" height="60"/>
    <rect x="200" y="1000" width="70" height="40"/>
    <rect x="420" y="990" width="100" height="70"/>
    <rect x="760" y="1000" width="90" height="60"/>
    <rect x="980" y="980" width="120" height="80"/>
    <rect x="1300" y="1000" width="100" height="60"/>
    <rect x="1600" y="990" width="110" height="70"/>
  </g>
</svg>
