<svg xmlns="http://www.w3.org/2000/svg" viewBox="0 0 256 256" width="512" height="512">
  <defs>
    <linearGradient id="g" x1="0" x2="1" y1="0" y2="1">
      <stop offset="0%" stop-color="#eaf1ff"/>
      <stop offset="50%" stop-color="#a6b8ff"/>
      <stop offset="100%" stop-color="#5d7ff8"/>
    </linearGradient>
  </defs>
  <g fill="none" stroke="url(#g)" stroke-width="8" stroke-linecap="round" stroke-linejoin="round" opacity="0.9">
    <path d="M32 176c48-64 80-96 112-112 24-12 48-16 72-8-24 8-40 20-48 32 20-8 36-8 56 0-28 8-44 20-56 36 18-6 32-6 48 2-26 8-42 20-54 36 14-4 26-4 38 2-22 6-36 16-48 30-12 14-28 24-54 28-26 4-44-8-64-46z"/>
    <path d="M40 168c28 8 44 8 64 0"/>
    <path d="M56 144c28 8 44 8 64 0"/>
    <path d="M72 120c28 8 44 8 64 0"/>
  </g>
</svg>
